<svg xmlns="http://www.w3.org/2000/svg" width="32.001" height="32.001" viewBox="0 0 32.001 32.001">
  <path id="behance" d="M685,4369a16,16,0,1,1,11.314-4.687A15.895,15.895,0,0,1,685,4369Zm5.5-18.929a4.377,4.377,0,0,0-4.577,4.473,4.555,4.555,0,0,0,8.852,1.408h-2.155a2.319,2.319,0,0,1-2.035,1.295c-1.319,0-2.117-.881-2.189-2.417h6.43a4.606,4.606,0,0,0-1.1-3.507A4.283,4.283,0,0,0,690.5,4350.072ZM675,4347v11.772h5.965c2,0,4.344-.889,4.344-3.393a2.868,2.868,0,0,0-2.26-2.965,2.558,2.558,0,0,0,1.673-2.441c0-1.973-1.322-2.974-3.93-2.974Zm13.22.791v1.57h4.93v-1.57Zm-7.617,9.08h-3.128v-3.212h3.18c1.24,0,1.869.563,1.869,1.671C682.524,4356.366,681.9,4356.87,680.6,4356.87Zm11.778-3.563H688.4c.018-.348.221-1.481,2.033-1.481,1.262,0,1.735.36,1.949,1.48Zm-11.934-1.6h-2.973v-2.736h2.766c.8,0,1.862.139,1.862,1.344C682.1,4351.215,681.515,4351.709,680.447,4351.709Z" transform="translate(-669 -4337)" fill="#ebebeb"/>
</svg>
