<svg xmlns="http://www.w3.org/2000/svg" width="32" height="32.001" viewBox="0 0 32 32.001">
  <path id="linked-in" d="M351,4369a16,16,0,1,1,11.314-4.687A15.895,15.895,0,0,1,351,4369Zm-3.27-21.007V4360l3.258,0v-4.357a11.8,11.8,0,0,1,.162-2.5,3.257,3.257,0,0,1,1.122-1.739,3.07,3.07,0,0,1,1.936-.627,2.652,2.652,0,0,1,1.461.379,2.017,2.017,0,0,1,.829,1.1,11.483,11.483,0,0,1,.238,2.933V4360H360v-7.559a4,4,0,0,0-1.351-3.219,5.018,5.018,0,0,0-3.5-1.281,5.158,5.158,0,0,0-1.865.347,9.706,9.706,0,0,0-2.275,1.309v-1.6Zm-5.73,0V4360h3.274v-12.006Zm1.634-3.994a1.608,1.608,0,0,0-1.15.459,1.492,1.492,0,0,0-.476,1.108,1.563,1.563,0,0,0,.481,1.15,1.607,1.607,0,0,0,1.163.473,1.586,1.586,0,0,0,1.14-.464,1.515,1.515,0,0,0,.477-1.123,1.534,1.534,0,0,0-.481-1.136A1.608,1.608,0,0,0,343.634,4344Z" transform="translate(-335 -4337)" fill="#ebebeb"/>
</svg>
