<svg xmlns="http://www.w3.org/2000/svg" width="32" height="32" viewBox="0 0 32 32">
  <path id="google_" data-name="google+" d="M396,4369c-.541,0-1.089-.027-1.626-.082a6.374,6.374,0,0,0,3.871-5.618c0-2.459-1.395-3.675-2.872-4.962l-1.232-.993-.015-.012a1.945,1.945,0,0,1-.875-1.511,2.432,2.432,0,0,1,.908-1.686l.05-.052c1.346-1.1,2.872-2.341,2.872-5.033a6,6,0,0,0-2.427-4.786h2.12l2.188-1.277h-7.045a9.1,9.1,0,0,0-6.123,1.95,6.486,6.486,0,0,0-2.19,4.75,5.5,5.5,0,0,0,5.679,5.564c.328,0,.695-.034,1.049-.067h.011l.036,0-.047.115a3.014,3.014,0,0,0-.3,1.269,3.624,3.624,0,0,0,.957,2.32l.068.091-.084.006c-1.526.1-4.366.3-6.45,1.624a5.883,5.883,0,0,0-1.675,1.516A16,16,0,1,1,396,4369Zm5.91-21v3h2v-3h3v-2h-3v-3h-2v3h-3v2Zm-10.041,20.461h0a16.02,16.02,0,0,1-6.948-3.918c-.011-.119-.016-.238-.016-.356a3.927,3.927,0,0,1,2.942-3.651,13.366,13.366,0,0,1,3.592-.568,5.249,5.249,0,0,1,.786.036c2.518,1.855,3.729,2.829,3.729,4.68,0,2.093-1.527,3.505-4.085,3.778Zm-.977-14.2A3.812,3.812,0,0,1,387.65,4352a8.954,8.954,0,0,1-1.035-4.045,4.116,4.116,0,0,1,.753-2.624,3.174,3.174,0,0,1,2.394-1.169c2.776,0,4.311,3.856,4.311,6.521a3.715,3.715,0,0,1-.854,2.588A3.447,3.447,0,0,1,390.892,4354.261Z" transform="translate(-380 -4337)" fill="#ebebeb"/>
</svg>
