<svg xmlns="http://www.w3.org/2000/svg" width="53.547" height="72" viewBox="0 0 53.547 72">
  <path id="Logo" d="M274.714,88.981A46.974,46.974,0,0,1,271.3,103.7c-.623,1.417-1.756,2.767-2.279,4.3h-.228v-1.132c.428-.665.219-1.574.456-2.49,1.128-4.357,1.213-10.17-.684-13.811-3.24-6.221-9.728-4.129-16.182-6.793a12.43,12.43,0,0,1-5.7-5.434l-1.367-3.849A14.907,14.907,0,0,1,246,66.339c3.107-8.131,10.872-11.709,20.284-7.245v-.679c-.807-1.1-.545-2.733-.912-4.3-.985-4.219-1.744-18.067,2.963-18.113,1.277.926,3.731.885,3.874,2.944-.376.405-.4.569-.456,1.358h.228v-.226c.981-1.03,1.25-3.371,2.963-3.623,1.368,1.22,3.684,1.463,4.1,3.623a17.484,17.484,0,0,0-2.735,5.887h.456c1.428-1.877,7.312-7.251,10.028-6.793a14.129,14.129,0,0,1,2.051,4.3c-1.435.51-2.1,1.9-3.191,2.717-4,3-7.232,7.374-9.8,11.774h.684c1.569-1.22,7.973-1.811,10.712-1.132,7.223,1.792,9.252,4.271,10.94,11.547a13.416,13.416,0,0,1,.228,4.755c-2.183,9.442-6.79,14.209-16.41,16.3C279.436,89.993,276.873,89.1,274.714,88.981Z" transform="translate(-245.004 -36)" fill="#f6f6f6"/>
</svg>
