<svg xmlns="http://www.w3.org/2000/svg" width="84" height="84" viewBox="0 0 84 84">
  <g id="Arrow-Up" transform="translate(-1387 -5256)">
    <rect id="Rectangle_12" data-name="Rectangle 12" width="84" height="84" transform="translate(1387 5256)" fill="#9f9acf" opacity="0.502"/>
    <path id="interface_-_arrow_top_" data-name="interface - arrow top " d="M1445.112,5308.534,1429,5290.319l-16.112,18.214a1.054,1.054,0,0,1-1.379.342.9.9,0,0,1-.37-1.276l16.923-19.132a1.179,1.179,0,0,1,1.877,0l16.923,19.132a.9.9,0,0,1-.369,1.276,1.072,1.072,0,0,1-.5.125A1.027,1.027,0,0,1,1445.112,5308.534Z" fill="#e5e5e5"/>
  </g>
</svg>
